<?xml version="1.0" standalone="no"?>
<!DOCTYPE svg PUBLIC "-//W3C//DTD SVG 20010904//EN"
 "http://www.w3.org/TR/2001/REC-SVG-20010904/DTD/svg10.dtd">
<svg version="1.0" xmlns="http://www.w3.org/2000/svg"
 width="584.000000pt" height="584.000000pt" viewBox="0 0 584.000000 584.000000"
 preserveAspectRatio="xMidYMid meet">
<metadata>
Created by potrace 1.11, written by Peter Selinger 2001-2013
</metadata>
<g transform="translate(0.000000,584.000000) scale(0.100000,-0.100000)"
fill="#000000" stroke="none">
<path d="M2442 4378 c0 -255 -1 -469 -1 -475 -1 -14 -27 -18 -33 -5 -1 4 -31
31 -65 60 -59 50 -131 122 -202 202 -119 132 -379 508 -379 545 1 38 -2 45
-22 45 -10 0 -24 8 -29 18 -9 16 -12 16 -39 1 -28 -16 -31 -15 -60 3 -31 19
-31 19 -42 -1 -6 -12 -20 -21 -30 -21 -19 0 -25 -15 -21 -47 1 -7 -3 -19 -9
-25 -5 -7 -57 -76 -114 -153 -57 -77 -114 -151 -127 -166 -13 -14 -37 -43 -53
-64 -31 -40 -274 -286 -315 -318 -206 -163 -357 -240 -520 -266 -35 -6 -66
-10 -70 -9 -28 3 -32 -4 -28 -60 5 -77 10 -83 60 -78 154 17 333 83 460 170
21 14 42 26 46 26 5 0 11 7 15 15 3 8 11 15 17 15 6 0 26 12 43 28 18 15 54
45 81 67 84 69 260 249 345 355 25 30 48 57 51 60 3 3 28 36 56 73 28 37 53
64 56 60 8 -14 5 -1983 -3 -1988 -9 -5 -56 -13 -120 -19 -60 -6 -139 -16 -170
-22 -14 -3 -44 -7 -66 -9 -23 -2 -54 -6 -69 -9 -16 -3 -49 -8 -74 -11 -25 -4
-68 -11 -96 -16 -27 -5 -66 -11 -85 -13 -19 -3 -35 -5 -35 -6 0 -2 -34 -8 -80
-15 -16 -2 -105 -18 -197 -36 -191 -37 -182 -29 -154 -137 17 -63 16 -57 16
-83 0 -25 5 -24 201 15 69 14 147 28 175 32 27 3 52 8 56 10 3 2 30 7 60 10
29 3 56 8 60 10 4 3 27 7 50 9 24 3 54 7 68 10 14 3 49 7 78 11 29 3 63 7 75
10 12 2 40 7 62 10 22 2 51 7 65 9 22 3 105 12 165 18 20 2 20 -5 22 -563 1
-311 2 -567 2 -570 1 -8 224 -6 236 2 6 4 10 208 9 582 0 317 2 576 5 577 25
4 206 20 276 24 28 1 102 6 165 10 63 4 140 8 171 9 l57 2 1 -235 c1 -130 2
-243 2 -251 -1 -35 0 -124 3 -458 4 -349 8 -394 36 -366 6 6 12 21 15 33 2 12
6 30 9 39 6 18 8 31 26 172 6 47 13 99 16 115 3 17 7 46 9 65 2 19 7 46 10 60
3 14 7 36 10 50 3 14 7 36 10 50 3 14 8 36 11 50 3 14 7 33 10 42 3 9 6 25 8
35 10 51 62 187 98 256 42 81 131 182 198 228 19 12 37 26 40 30 3 3 15 11 28
18 20 11 28 7 84 -41 139 -120 184 -175 231 -279 24 -53 53 -136 62 -175 2
-10 14 -62 25 -114 12 -52 23 -108 25 -125 2 -16 8 -61 14 -100 5 -38 13 -88
15 -110 3 -22 8 -51 10 -65 2 -14 8 -52 11 -85 4 -33 10 -71 12 -85 2 -14 5
-34 7 -45 2 -11 4 -29 5 -39 1 -22 13 -14 19 12 7 32 12 328 15 817 l2 490 80
-1 c72 0 273 -11 350 -19 102 -10 194 -18 220 -20 17 -2 36 -3 43 -4 7 0 12
-9 11 -18 -1 -10 -1 -270 0 -578 l1 -560 115 0 c77 0 118 4 123 12 4 6 7 259
7 563 l-1 552 41 -6 c22 -3 92 -12 155 -22 63 -9 126 -18 140 -20 83 -11 108
-15 135 -21 17 -4 39 -7 50 -8 27 -3 97 -15 115 -20 8 -2 33 -6 54 -10 21 -3
48 -7 60 -10 12 -3 32 -7 46 -9 14 -3 65 -12 113 -22 48 -9 90 -15 91 -13 2 2
6 20 9 39 3 19 8 45 11 57 16 71 18 113 5 114 -8 0 -21 2 -29 4 -8 1 -31 5
-50 9 -19 3 -46 8 -60 11 -65 13 -189 36 -220 41 -19 2 -46 7 -60 10 -13 3
-40 8 -60 10 -19 2 -46 7 -60 9 -78 16 -95 18 -185 29 -33 4 -71 10 -85 13
-14 2 -43 7 -65 9 -22 2 -65 7 -95 12 l-55 7 0 988 c-1 543 0 987 2 987 2 0
91 -126 118 -168 33 -51 132 -173 213 -261 163 -179 344 -309 511 -366 105
-35 240 -53 242 -32 9 116 9 127 -9 128 -52 2 -119 12 -134 20 -9 5 -24 9 -33
9 -32 0 -184 80 -261 138 -105 79 -232 206 -314 312 -19 25 -37 47 -40 50 -3
3 -17 21 -30 40 -13 19 -27 37 -30 40 -10 8 -88 124 -166 248 -58 94 -71 120
-70 153 1 34 -1 39 -21 39 -13 0 -23 4 -23 9 0 17 -32 21 -52 6 -22 -14 -53
-6 -71 19 -5 7 -13 4 -24 -11 -8 -13 -24 -23 -34 -23 -13 0 -19 -7 -19 -24 0
-13 -21 -52 -47 -87 -65 -89 -194 -251 -215 -270 -10 -9 -18 -19 -18 -22 0 -4
-21 -29 -47 -56 -27 -27 -66 -68 -89 -92 -47 -50 -183 -179 -189 -179 -2 0
-19 -14 -37 -31 -72 -67 -68 -79 -68 197 0 241 -4 289 -16 188 -13 -116 -44
-222 -121 -414 -47 -117 -77 -179 -135 -281 -54 -95 -167 -226 -221 -255 -75
-42 -172 101 -272 401 -26 77 -48 147 -50 155 -3 15 -79 269 -117 390 -20 65
-54 192 -64 240 -2 14 -8 34 -11 45 -8 24 -10 36 -19 100 -6 52 -19 85 -32 85
-5 0 -9 -208 -10 -462z m1776 -925 c-3 -991 -3 -998 -23 -996 -11 1 -58 5
-105 8 -47 4 -103 9 -125 11 -22 3 -71 6 -110 9 -38 2 -115 7 -170 11 -55 4
-113 7 -128 8 -33 1 -45 18 -40 54 4 30 6 211 3 227 -1 6 -1 15 0 20 5 21 2
283 -3 292 -3 5 -2 15 3 22 4 8 4 27 0 42 -5 17 -5 31 1 35 5 3 7 10 3 15 -3
5 -7 131 -8 279 -3 304 -11 271 82 334 23 16 42 32 42 37 0 4 8 10 18 14 41
13 274 243 412 405 30 36 65 76 78 90 13 14 31 37 40 53 9 15 20 27 24 27 5 0
7 -449 6 -997z m-2438 949 c0 -15 149 -212 252 -333 82 -96 250 -257 301 -287
15 -9 27 -20 27 -24 0 -4 6 -8 13 -8 6 0 24 -11 40 -24 26 -23 27 -28 26 -104
-1 -44 2 -85 5 -91 4 -6 4 -11 -1 -11 -4 0 -8 -227 -7 -505 l0 -505 -25 -1
c-65 -2 -329 -17 -421 -24 -19 -2 -73 -6 -119 -9 -46 -4 -88 -9 -93 -12 -4 -3
-9 -2 -10 3 -6 33 -3 1943 4 1943 4 0 8 -4 8 -8z"/>
<path d="M2928 4702 c-136 -46 -210 -168 -203 -336 5 -122 63 -223 160 -278
34 -19 121 -36 155 -31 43 6 105 40 147 79 149 140 127 426 -42 541 -55 37
-148 48 -217 25z"/>
</g>
</svg>
